<svg width="277" height="277" viewBox="0 0 277 277" fill="none" xmlns="http://www.w3.org/2000/svg">
<rect width="277" height="277" rx="138.5" fill="#FFE0DB"/>
<path d="M88.3333 93C88.3333 88.4037 89.2386 83.8525 90.9975 79.6061C92.7565 75.3597 95.3345 71.5013 98.5846 68.2513C101.835 65.0012 105.693 62.4231 109.939 60.6642C114.186 58.9053 118.737 58 123.333 58C127.93 58 132.481 58.9053 136.727 60.6642C140.974 62.4231 144.832 65.0012 148.082 68.2513C151.332 71.5013 153.91 75.3597 155.669 79.6061C157.428 83.8525 158.333 88.4037 158.333 93C158.333 102.283 154.646 111.185 148.082 117.749C141.518 124.313 132.616 128 123.333 128C114.051 128 105.148 124.313 98.5846 117.749C92.0208 111.185 88.3333 102.283 88.3333 93ZM51 181.667C51 172.384 54.6875 163.482 61.2513 156.918C67.815 150.354 76.7174 146.667 86 146.667H89.1733C90.9 146.667 92.6173 146.947 94.2507 147.469L102.333 150.111C111.255 153.025 120.685 154.052 130.025 153.125C130.373 153.096 130.723 153.156 131.041 153.3C131.36 153.444 131.636 153.666 131.845 153.947C132.053 154.227 132.186 154.556 132.232 154.902C132.278 155.248 132.235 155.6 132.107 155.925C129.387 162.618 127.993 169.776 128 177C128 188.685 131.584 199.54 137.707 208.519C138.556 209.769 137.735 211.533 136.213 211.58C111.728 212.425 87.2194 210.861 63.04 206.913C59.6793 206.366 56.6228 204.641 54.417 202.047C52.2112 199.454 51.0001 196.16 51 192.755V181.667Z" fill="#F48270"/>
<path fill-rule="evenodd" clip-rule="evenodd" d="M142 177C142 186.072 144.875 194.472 149.765 201.332C153.637 206.806 158.768 211.269 164.727 214.344C170.685 217.419 177.295 219.016 184 219C192.307 219 200.427 216.537 207.334 211.922C214.241 207.307 219.624 200.747 222.803 193.073C225.982 185.398 226.814 176.953 225.193 168.806C223.572 160.659 219.572 153.175 213.698 147.302C207.825 141.428 200.341 137.428 192.194 135.807C184.047 134.186 175.602 135.018 167.927 138.197C160.253 141.376 153.693 146.759 149.078 153.666C144.463 160.573 142 168.693 142 177ZM184 205C178.997 205.01 174.084 203.672 169.776 201.127L208.127 162.776C210.635 167.029 211.974 171.87 212.008 176.808C212.042 181.745 210.77 186.604 208.32 190.891C205.87 195.179 202.33 198.742 198.059 201.22C193.788 203.697 188.938 205.002 184 205ZM159.873 191.224L198.224 152.873C192.876 149.713 186.628 148.421 180.465 149.2C174.302 149.98 168.573 152.787 164.18 157.18C159.787 161.573 156.98 167.302 156.2 173.465C155.421 179.628 156.713 185.876 159.873 191.224Z" fill="#F48270"/>
</svg>
