<svg width="123" height="23" viewBox="0 0 123 23" fill="none" xmlns="http://www.w3.org/2000/svg">
<path d="M1.33982 10.0836C6.57331 7.80396 10.0623 6.30094 11.8068 5.57481C16.7935 3.50133 17.8284 3.14121 18.5043 3.12901C18.653 3.12663 18.9839 3.16337 19.1999 3.33796C19.3794 3.4852 19.4299 3.68433 19.4551 3.82415C19.4775 3.96382 19.5084 4.28215 19.4831 4.53064C19.2139 7.36895 18.0444 14.2566 17.4498 17.4357C17.2002 18.7808 16.7037 19.2318 16.2241 19.2758C15.1808 19.3718 14.3899 18.587 13.3802 17.9254C11.8012 16.8896 10.9093 16.2451 9.37516 15.2346C7.60262 14.0668 8.75253 13.4248 9.76221 12.3758C10.0258 12.1013 14.6199 7.92371 14.7068 7.54481C14.718 7.49741 14.7293 7.32071 14.6227 7.2276C14.5189 7.1342 14.3647 7.16618 14.2525 7.19142C14.0926 7.22732 11.5712 8.89553 6.67989 12.1958C5.9647 12.6877 5.31682 12.9275 4.73346 12.9149C4.09399 12.9011 2.85994 12.5525 1.94282 12.2547C0.820959 11.8892 -0.0737277 11.696 0.00480273 11.0753C0.0440679 10.7522 0.490009 10.4215 1.33982 10.0836Z" fill="#2AABEE"/>
<path d="M32.1193 18.2064V6.2517H27.2943V3.02071H40.9076V6.2517H36.0826V18.2064H32.1193ZM42.4058 18.2064V3.02071H53.1327V6.07938H46.1968V8.96573H52.6373V12.0244H46.1968V15.1477H53.1327V18.2064H42.4058ZM55.6369 18.2064V3.02071H59.6002V14.9108H66.3637V18.2064H55.6369ZM68.2369 18.2064V3.02071H78.9638V6.07938H72.0279V8.96573H78.4683V12.0244H72.0279V15.1477H78.9638V18.2064H68.2369ZM86.9011 18.4433C85.7092 18.4433 84.5676 18.2997 83.4762 18.0125C82.3848 17.7109 81.4874 17.316 80.7837 16.8278L81.8822 13.7476C82.5428 14.1928 83.3182 14.5446 84.2086 14.8031C85.0989 15.0615 85.9964 15.1908 86.9011 15.1908C87.8488 15.1908 88.5094 15.0687 88.8827 14.8246C89.2704 14.5661 89.4643 14.2502 89.4643 13.8768C89.4643 13.5466 89.3279 13.2809 89.055 13.0799C88.7966 12.8788 88.3299 12.7065 87.655 12.5629L85.1348 12.0244C82.4064 11.4356 81.0422 10.0068 81.0422 7.73795C81.0422 6.74712 81.3079 5.87834 81.8392 5.13162C82.3848 4.3849 83.1387 3.81051 84.1009 3.40843C85.063 2.99199 86.1831 2.78377 87.4611 2.78377C88.5094 2.78377 89.5002 2.93455 90.4336 3.23611C91.3814 3.52331 92.1496 3.91821 92.7384 4.4208L91.6398 7.30715C91.0942 6.90508 90.4623 6.59634 89.7443 6.38094C89.0263 6.15118 88.2509 6.0363 87.418 6.0363C86.6139 6.0363 85.9964 6.1799 85.5656 6.4671C85.1348 6.73994 84.9194 7.09894 84.9194 7.54409C84.9194 7.86001 85.0486 8.11849 85.3071 8.31953C85.5656 8.52057 86.0251 8.69289 86.6857 8.83649L89.1843 9.37499C91.9558 9.96375 93.3415 11.3567 93.3415 13.5537C93.3415 14.5446 93.0758 15.4062 92.5445 16.1385C92.0132 16.8709 91.2665 17.4381 90.3044 17.8402C89.3422 18.2423 88.2078 18.4433 86.9011 18.4433ZM98.5481 18.2064V6.2517H93.7232V3.02071H107.336V6.2517H102.511V18.2064H98.5481ZM105.3 18.2064L112.408 3.02071H115.531L122.64 18.2064H118.676L117.362 15.1261H110.577L109.263 18.2064H105.3ZM113.937 7.15638L111.87 12.089H116.048L113.98 7.15638H113.937Z" fill="#2AABEE"/>
</svg>
