<svg width="17" height="17" viewBox="0 0 17 17" fill="none" xmlns="http://www.w3.org/2000/svg">
<g clip-path="url(#clip0_2765_4504)">
<path d="M2.65967 4.6604C3.76424 4.6604 4.65967 3.76497 4.65967 2.6604C4.65967 1.55583 3.76424 0.6604 2.65967 0.6604C1.5551 0.6604 0.659668 1.55583 0.659668 2.6604C0.659668 3.76497 1.5551 4.6604 2.65967 4.6604Z" fill="#141824" fill-opacity="0.65"/>
<path d="M2.65967 10.6604C3.76424 10.6604 4.65967 9.76497 4.65967 8.6604C4.65967 7.55583 3.76424 6.6604 2.65967 6.6604C1.5551 6.6604 0.659668 7.55583 0.659668 8.6604C0.659668 9.76497 1.5551 10.6604 2.65967 10.6604Z" fill="#141824" fill-opacity="0.65"/>
<path d="M2.65967 16.6604C3.76424 16.6604 4.65967 15.765 4.65967 14.6604C4.65967 13.5558 3.76424 12.6604 2.65967 12.6604C1.5551 12.6604 0.659668 13.5558 0.659668 14.6604C0.659668 15.765 1.5551 16.6604 2.65967 16.6604Z" fill="#141824" fill-opacity="0.65"/>
<path d="M8.65967 10.6604C9.76424 10.6604 10.6597 9.76497 10.6597 8.6604C10.6597 7.55583 9.76424 6.6604 8.65967 6.6604C7.5551 6.6604 6.65967 7.55583 6.65967 8.6604C6.65967 9.76497 7.5551 10.6604 8.65967 10.6604Z" fill="#141824" fill-opacity="0.65"/>
<path d="M8.65967 16.6604C9.76424 16.6604 10.6597 15.765 10.6597 14.6604C10.6597 13.5558 9.76424 12.6604 8.65967 12.6604C7.5551 12.6604 6.65967 13.5558 6.65967 14.6604C6.65967 15.765 7.5551 16.6604 8.65967 16.6604Z" fill="#141824" fill-opacity="0.65"/>
<path d="M14.6597 10.6604C15.7642 10.6604 16.6597 9.76497 16.6597 8.6604C16.6597 7.55583 15.7642 6.6604 14.6597 6.6604C13.5551 6.6604 12.6597 7.55583 12.6597 8.6604C12.6597 9.76497 13.5551 10.6604 14.6597 10.6604Z" fill="#141824" fill-opacity="0.65"/>
<path d="M14.6597 16.6604C15.7642 16.6604 16.6597 15.765 16.6597 14.6604C16.6597 13.5558 15.7642 12.6604 14.6597 12.6604C13.5551 12.6604 12.6597 13.5558 12.6597 14.6604C12.6597 15.765 13.5551 16.6604 14.6597 16.6604Z" fill="#141824" fill-opacity="0.65"/>
<path d="M8.65967 4.6604C9.76424 4.6604 10.6597 3.76497 10.6597 2.6604C10.6597 1.55583 9.76424 0.6604 8.65967 0.6604C7.5551 0.6604 6.65967 1.55583 6.65967 2.6604C6.65967 3.76497 7.5551 4.6604 8.65967 4.6604Z" fill="#141824" fill-opacity="0.65"/>
<path d="M14.6597 4.6604C15.7642 4.6604 16.6597 3.76497 16.6597 2.6604C16.6597 1.55583 15.7642 0.6604 14.6597 0.6604C13.5551 0.6604 12.6597 1.55583 12.6597 2.6604C12.6597 3.76497 13.5551 4.6604 14.6597 4.6604Z" fill="#141824" fill-opacity="0.65"/>
</g>
<defs>
<clipPath id="clip0_2765_4504">
<rect width="16" height="16" fill="white" transform="translate(0.659668 0.6604)"/>
</clipPath>
</defs>
</svg>
