<svg width="14" height="13" viewBox="0 0 14 13" fill="none" xmlns="http://www.w3.org/2000/svg">
<path d="M13.1671 11.2729L10.1746 8.28041C10.8551 7.27016 11.1909 6.00791 11.0111 4.66291C10.7046 2.37516 8.82964 0.513411 6.53964 0.223486C3.13489 -0.207339 0.271889 2.65566 0.702739 6.06041C0.992739 8.35141 2.85474 10.2279 5.14274 10.5329C6.48774 10.7126 7.75024 10.377 8.76024 9.69641L11.7527 12.6889C12.1432 13.0794 12.7765 13.0794 13.167 12.6889C13.5571 12.2979 13.5571 11.6629 13.1671 11.2729ZM2.63714 5.38041C2.63714 3.61591 4.07264 2.18041 5.83714 2.18041C7.60164 2.18041 9.03714 3.61591 9.03714 5.38041C9.03714 7.14491 7.60164 8.58041 5.83714 8.58041C4.07264 8.58041 2.63714 7.14541 2.63714 5.38041Z" fill="#8A94AD"/>
</svg>
