<svg width="11" height="11" viewBox="0 0 11 11" fill="none" xmlns="http://www.w3.org/2000/svg">
<path d="M7.27033 3.186L10.1393 3.60908C10.3769 3.64301 10.5766 3.81065 10.6524 4.04015C10.7283 4.27165 10.6664 4.5231 10.4947 4.69473L8.41434 6.7343L8.90548 9.65995C8.94541 9.89943 8.84758 10.1429 8.64793 10.2846C8.45028 10.4263 8.18873 10.4443 7.9751 10.3305L5.41156 8.96346L2.85001 10.3305C2.63439 10.4443 2.37284 10.4263 2.17519 10.2846C1.97753 10.1429 1.8777 9.89943 1.91963 9.65995L2.41078 6.7343L0.329997 4.69473C0.158096 4.5231 0.0970018 4.27165 0.172471 4.04015C0.24774 3.81065 0.446793 3.64301 0.686177 3.60908L3.55279 3.186L4.83856 0.545132C4.94437 0.325289 5.16798 0.18573 5.41156 0.18573C5.65713 0.18573 5.88074 0.325289 5.98656 0.545132L7.27033 3.186Z" fill="#E5780B"/>
</svg>
