<svg width="12" height="11" viewBox="0 0 12 11" fill="none" xmlns="http://www.w3.org/2000/svg">
<path d="M5.90752 0.186554C6.0912 0.186554 6.2589 0.291327 6.33877 0.456368L7.70838 3.27585L10.7691 3.72887C10.9487 3.75481 11.0965 3.88054 11.1544 4.05217C11.2103 4.22579 11.1644 4.41538 11.0366 4.5411L8.81646 6.74033L9.34154 9.8436C9.37149 10.0232 9.29762 10.2068 9.14788 10.3126C9.00014 10.4184 8.78651 10.4323 8.64276 10.3465L5.90752 8.88568L3.1563 10.3465C3.01255 10.4323 2.81689 10.4184 2.66715 10.3126C2.51941 10.2068 2.44554 10.0232 2.45752 9.8436L2.99858 6.74033L0.780633 4.5411C0.651657 4.41538 0.605936 4.22579 0.662638 4.05217C0.719139 3.88054 0.86828 3.75481 1.04777 3.72887L4.10665 3.27585L5.47627 0.456368C5.55812 0.291307 5.72384 0.186554 5.90752 0.186554ZM5.90752 1.76213L4.85934 3.92245C4.78946 4.06414 4.6537 4.16392 4.49797 4.18787L2.13568 4.53512L3.85109 6.23343C3.9609 6.34319 4.01082 6.50085 3.98486 6.65452L3.58156 9.04134L5.68191 7.91977C5.82366 7.84394 5.99337 7.84394 6.13312 7.91977L8.23347 9.04134L7.83017 6.65452C7.80422 6.50085 7.85613 6.34319 7.96594 6.23343L9.68095 4.53512L7.31906 4.18787C7.16134 4.16392 7.02557 4.06414 6.95769 3.92245L5.90752 1.76213Z" fill="#FFCC85"/>
</svg>
