<svg width="11" height="11" viewBox="0 0 11 11" fill="none" xmlns="http://www.w3.org/2000/svg">
<path d="M8.90548 9.65998C8.94541 9.89946 8.84758 10.1429 8.64793 10.2846C8.45028 10.4263 8.18873 10.4443 7.9751 10.3305L5.41156 8.96349L2.85001 10.3305C2.63439 10.4443 2.37284 10.4263 2.17519 10.2846C1.97753 10.1429 1.8777 9.89946 1.91963 9.65998L2.41078 6.73433L0.329997 4.69476C0.158096 4.52313 0.0970018 4.27168 0.172471 4.04018C0.24774 3.81068 0.446793 3.64304 0.686177 3.60911L3.55279 3.18603L4.83856 0.545163C4.94437 0.32532 5.16798 0.18576 5.41156 0.18576C5.65713 0.18576 5.88074 0.32532 5.98656 0.545163L7.27033 3.18603L10.1393 3.60911C10.3769 3.64304 10.5766 3.81068 10.6524 4.04018C10.7283 4.27168 10.6664 4.52313 10.4947 4.69476L8.41434 6.73433L8.90548 9.65998ZM5.40956 7.69824L5.41156 7.69624L7.63968 8.88566L7.21442 6.36513L9.02727 4.57302L6.52363 4.20582L5.41156 1.91978L5.40956 1.92557V7.69824Z" fill="#E5780B"/>
</svg>
