<svg width="51" height="53" viewBox="0 0 51 53" fill="none" xmlns="http://www.w3.org/2000/svg">
<path d="M0.865979 29.1535C0.482325 26.9777 1.93481 24.9033 4.11062 24.5196L23.8068 21.0467C25.9795 20.6636 28.0569 22.1155 28.4406 24.2913L31.9136 43.9875C32.2967 46.1602 30.8417 48.2382 28.6689 48.6213L8.97276 52.0943C6.79695 52.4779 4.72205 51.0224 4.33894 48.8496L0.865979 29.1535Z" fill="#F48270"/>
<path d="M48.3896 20.5704C48.3896 30.5126 40.3318 38.5704 30.3896 38.5704C20.4475 38.5704 12.3896 30.5126 12.3896 20.5704C12.3896 10.6282 20.4475 2.57043 30.3896 2.57043C40.3318 2.57043 48.3896 10.6282 48.3896 20.5704Z" fill="#FFE0DB" stroke="#F5F7FA" stroke-width="4.21875"/>
<path d="M34.5076 23.4524C34.8494 23.7942 34.8494 24.3479 34.5076 24.6897C34.3381 24.8606 34.1139 24.9454 33.8896 24.9454C33.6654 24.9454 33.4418 24.8599 33.2711 24.689L30.3896 21.8091L27.5084 24.6884C27.3375 24.8606 27.1136 24.9454 26.8896 24.9454C26.6657 24.9454 26.442 24.8606 26.271 24.6884C25.9292 24.3466 25.9292 23.7928 26.271 23.4511L29.153 20.569L26.271 17.6884C25.9292 17.3466 25.9292 16.7928 26.271 16.451C26.6128 16.1093 27.1665 16.1093 27.5083 16.451L30.3896 19.3344L33.2717 16.4524C33.6135 16.1106 34.1672 16.1106 34.509 16.4524C34.8508 16.7942 34.8508 17.3479 34.509 17.6897L31.627 20.5718L34.5076 23.4524Z" fill="#FA3B1D"/>
</svg>
