<svg width="17" height="17" viewBox="0 0 17 17" fill="none" xmlns="http://www.w3.org/2000/svg">
<g clip-path="url(#clip0_2765_4000)">
<path d="M14.7996 11.3838C14.3755 12.3868 13.7121 13.2706 12.8675 13.958C12.0229 14.6454 11.0228 15.1154 9.95457 15.327C8.88635 15.5385 7.78256 15.4852 6.73971 15.1717C5.69686 14.8581 4.7467 14.2938 3.97229 13.5282C3.19789 12.7626 2.62282 11.819 2.29737 10.7798C1.97192 9.74056 1.90599 8.63745 2.10534 7.56688C2.3047 6.49631 2.76328 5.49088 3.44098 4.63848C4.11868 3.78608 4.99487 3.11267 5.99295 2.67712" stroke="#525B75" stroke-width="1.33333" stroke-linecap="round" stroke-linejoin="round"/>
<path d="M15.3263 8.79045C15.3263 7.91497 15.1539 7.04806 14.8189 6.23922C14.4838 5.43039 13.9928 4.69546 13.3737 4.0764C12.7547 3.45734 12.0197 2.96628 11.2109 2.63125C10.4021 2.29622 9.53515 2.12378 8.65967 2.12378V8.79045H15.3263Z" stroke="#525B75" stroke-width="1.33333" stroke-linecap="round" stroke-linejoin="round"/>
</g>
<defs>
<clipPath id="clip0_2765_4000">
<rect width="16" height="16" fill="white" transform="translate(0.659668 0.790405)"/>
</clipPath>
</defs>
</svg>
