<svg width="21" height="21" viewBox="0 0 21 21" fill="none" xmlns="http://www.w3.org/2000/svg">
<path d="M15.6597 6.98706C15.6597 5.66098 15.1329 4.38921 14.1952 3.45153C13.2575 2.51384 11.9858 1.98706 10.6597 1.98706C9.33359 1.98706 8.06182 2.51384 7.12413 3.45153C6.18645 4.38921 5.65967 5.66098 5.65967 6.98706C5.65967 12.8204 3.15967 14.4871 3.15967 14.4871H18.1597C18.1597 14.4871 15.6597 12.8204 15.6597 6.98706Z" stroke="#141824" stroke-opacity="0.65" stroke-width="1.66667" stroke-linecap="round" stroke-linejoin="round"/>
<path d="M12.1011 17.8204C11.9546 18.073 11.7443 18.2826 11.4913 18.4284C11.2383 18.5741 10.9514 18.6508 10.6594 18.6508C10.3675 18.6508 10.0806 18.5741 9.82758 18.4284C9.57457 18.2826 9.36428 18.073 9.21777 17.8204" stroke="#141824" stroke-opacity="0.65" stroke-width="1.66667" stroke-linecap="round" stroke-linejoin="round"/>
</svg>
