<svg width="51" height="53" viewBox="0 0 51 53" fill="none" xmlns="http://www.w3.org/2000/svg">
<path d="M0.915783 29.1535C0.53213 26.9777 1.98461 24.9033 4.16042 24.5196L23.8566 21.0467C26.0293 20.6636 28.1068 22.1155 28.4904 24.2913L31.9634 43.9875C32.3465 46.1602 30.8915 48.2382 28.7187 48.6213L9.02257 52.0943C6.84676 52.4779 4.77185 51.0224 4.38874 48.8496L0.915783 29.1535Z" fill="#FFCC85"/>
<path d="M48.4395 20.5704C48.4395 30.5126 40.3816 38.5704 30.4395 38.5704C20.4973 38.5704 12.4395 30.5126 12.4395 20.5704C12.4395 10.6282 20.4973 2.57043 30.4395 2.57043C40.3816 2.57043 48.4395 10.6282 48.4395 20.5704Z" fill="#FFEFCA" stroke="#F5F7FA" stroke-width="4.21875"/>
<path d="M33.502 15.2958H32.627C31.9021 15.2958 31.3145 15.8834 31.3145 16.5837V24.4587C31.3145 25.1835 31.9021 25.7712 32.627 25.7712L33.502 25.8204C34.2268 25.8204 34.8145 25.2328 34.8145 24.5079V16.6329C34.8145 15.908 34.2266 15.2958 33.502 15.2958ZM28.252 15.2958H27.377C26.6521 15.2958 26.0645 15.8834 26.0645 16.6083V24.4833C26.0645 25.2325 26.6521 25.8204 27.377 25.8204H28.252C28.9768 25.8204 29.5645 25.2328 29.5645 24.5079V16.6329C29.5645 15.908 28.9766 15.2958 28.252 15.2958Z" fill="#E5780B"/>
</svg>
