<svg width="50" height="53" viewBox="0 0 50 53" fill="none" xmlns="http://www.w3.org/2000/svg">
<path d="M0.135998 29.1535C-0.247655 26.9777 1.20483 24.9033 3.38064 24.5196L23.0768 21.0467C25.2495 20.6636 27.327 22.1155 27.7106 24.2913L31.1836 43.9875C31.5667 46.1602 30.1117 48.2382 27.9389 48.6213L8.24278 52.0943C6.06697 52.4779 3.99207 51.0224 3.60896 48.8496L0.135998 29.1535Z" fill="#90D67F"/>
<path d="M47.6597 20.5704C47.6597 30.5126 39.6019 38.5704 29.6597 38.5704C19.7175 38.5704 11.6597 30.5126 11.6597 20.5704C11.6597 10.6282 19.7175 2.57043 29.6597 2.57043C39.6019 2.57043 47.6597 10.6282 47.6597 20.5704Z" fill="#D9FBD0" stroke="#F5F7FA" stroke-width="4.21875"/>
<path d="M32.208 17.6802L36.1372 18.2599C36.4626 18.3063 36.7361 18.536 36.84 18.8505C36.9439 19.1677 36.8591 19.5122 36.624 19.7474L33.7747 22.5419L34.4474 26.5505C34.5021 26.8786 34.3681 27.2122 34.0947 27.4063C33.824 27.6005 33.4658 27.6251 33.1732 27.4692L29.6622 25.5962L26.154 27.4692C25.8587 27.6251 25.5005 27.6005 25.2298 27.4063C24.9591 27.2122 24.8224 26.8786 24.8798 26.5505L25.5525 22.5419L22.7027 19.7474C22.4673 19.5122 22.3836 19.1677 22.487 18.8505C22.5901 18.536 22.8627 18.3063 23.1905 18.2599L27.1165 17.6802L28.8775 14.0618C29.0224 13.7606 29.3287 13.5693 29.6622 13.5693C29.9986 13.5693 30.3048 13.7606 30.4497 14.0618L32.208 17.6802Z" fill="#25B003"/>
</svg>
